<svg viewBox="0 0 259 37" xmlns="http://www.w3.org/2000/svg" fill-rule="evenodd" clip-rule="evenodd" stroke-linejoin="round" stroke-miterlimit="2">
  <defs/>
  <g fill-rule="nonzero"  fill="white">
    <path d="M12.31 10.5c1.47 0 2.85.17 4.13.5 1.3.32 2.33.75 3.13 1.3.8.53 1.2 1.09 1.2 1.68 0 .22-.09.44-.27.66a.83.83 0 01-.66.31c-.36 0-.64-.1-.85-.29-.22-.2-.44-.43-.66-.7a3.03 3.03 0 00-1.08-.76 7.83 7.83 0 00-1.93-.6c-.83-.15-1.85-.24-3.05-.24-1.9 0-3.62.5-5.18 1.47a10.84 10.84 0 00-3.74 3.93c-.93 1.65-1.4 3.5-1.4 5.55a12 12 0 001.3 5.62 9.91 9.91 0 003.62 3.94c1.54.96 3.34 1.44 5.4 1.44 1.46 0 2.58-.14 3.34-.42.77-.28 1.43-.58 1.98-.9.69-.4 1.16-.77 1.42-1.13.26-.35.57-.53.93-.53.26 0 .46.08.61.24.15.16.22.38.22.64 0 .39-.36.9-1.07 1.54a9.74 9.74 0 01-3.01 1.68c-1.29.49-2.81.73-4.57.73-2.38 0-4.48-.56-6.3-1.68a11.74 11.74 0 01-4.28-4.6A13.84 13.84 0 010 23.31c0-2.28.51-4.39 1.54-6.33a12.41 12.41 0 014.3-4.69c1.84-1.19 4-1.78 6.48-1.78zM24.5 35.19c0 .26-.1.49-.3.68-.2.2-.42.3-.69.3-.29 0-.53-.1-.7-.3a.98.98 0 01-.27-.68V.98c0-.26.1-.5.29-.69.2-.2.42-.29.68-.29.3 0 .53.1.71.3.18.19.27.42.27.68v34.2zM47.96 11.29c.29 0 .53.1.7.3.19.19.27.42.27.68V34.7c0 .26-.1.49-.29.68-.2.2-.42.3-.68.3-.3 0-.53-.1-.71-.3a.98.98 0 01-.27-.68v-6.94l.78-.64c0 1.04-.26 2.1-.78 3.18a10.78 10.78 0 01-5.38 5.06c-1.23.53-2.57.8-4 .8-2.19 0-4.13-.57-5.84-1.7a11.79 11.79 0 01-4.04-4.65 14.54 14.54 0 01-1.46-6.6 14 14 0 011.49-6.57c1-1.9 2.34-3.4 4.05-4.5a10.54 10.54 0 015.8-1.63 10.38 10.38 0 017.2 2.88 9.89 9.89 0 012.96 7.18l-.78-1.22v-7.08c0-.26.09-.5.27-.69.18-.2.41-.3.7-.3zM37.69 34.3c1.83 0 3.46-.48 4.9-1.45a9.8 9.8 0 003.36-3.95 12.87 12.87 0 001.23-5.7c0-2.02-.41-3.85-1.23-5.5a9.86 9.86 0 00-3.37-3.9 8.57 8.57 0 00-4.89-1.45c-1.79 0-3.4.47-4.83 1.4a9.72 9.72 0 00-3.4 3.83 12.21 12.21 0 00-1.25 5.62c0 2.12.41 4.02 1.23 5.7.81 1.67 1.93 3 3.37 3.96a8.58 8.58 0 004.88 1.44zM51.68 36.16c-.3 0-.53-.1-.71-.29a.98.98 0 01-.27-.68V12.76c0-.27.1-.5.3-.69.19-.2.42-.3.68-.3.3 0 .53.1.7.3.19.2.28.42.28.68v8.26l-.83 1.27c0-1.27.21-2.55.65-3.86.44-1.3 1.09-2.51 1.93-3.64a10.21 10.21 0 013.1-2.73A8.35 8.35 0 0161.76 11c.45 0 .94.06 1.46.2.52.12.78.43.78.92 0 .3-.08.54-.24.73-.16.2-.37.3-.64.3-.2 0-.43-.08-.7-.22a2.6 2.6 0 00-1.2-.22c-1.04 0-2.07.3-3.08.92a10.87 10.87 0 00-2.76 2.47 13.15 13.15 0 00-1.98 3.35 9.33 9.33 0 00-.73 3.52v12.22c0 .26-.1.49-.3.68-.2.2-.42.3-.68.3zM87.46 11.29c.3 0 .53.1.7.3.19.19.28.42.28.68V34.7c0 .26-.1.49-.3.68-.2.2-.42.3-.68.3-.3 0-.53-.1-.71-.3a.98.98 0 01-.27-.68v-6.94l.78-.64c0 1.04-.26 2.1-.78 3.18a10.78 10.78 0 01-5.38 5.06c-1.23.53-2.57.8-4 .8-2.18 0-4.13-.57-5.84-1.7a11.78 11.78 0 01-4.03-4.65 14.54 14.54 0 01-1.47-6.6c0-2.47.5-4.66 1.5-6.57.98-1.9 2.34-3.4 4.05-4.5a10.54 10.54 0 015.79-1.63 10.38 10.38 0 017.2 2.88 9.9 9.9 0 012.96 7.18l-.78-1.22v-7.08c0-.26.1-.5.27-.69.18-.2.42-.3.7-.3zM77.2 34.3c1.82 0 3.45-.48 4.88-1.45a9.8 9.8 0 003.38-3.95 12.87 12.87 0 001.22-5.7c0-2.02-.41-3.85-1.23-5.5a9.86 9.86 0 00-3.37-3.9 8.57 8.57 0 00-4.88-1.45c-1.8 0-3.4.47-4.84 1.4a9.72 9.72 0 00-3.4 3.83 12.2 12.2 0 00-1.24 5.62c0 2.12.4 4.02 1.22 5.7.81 1.67 1.94 3 3.37 3.96a8.58 8.58 0 004.89 1.44z"/>
  </g>
  <path d="M112.35 10.5c1.46 0 2.84.17 4.13.5 1.28.32 2.33.75 3.12 1.3.8.53 1.2 1.09 1.2 1.68 0 .22-.09.44-.27.66a.84.84 0 01-.66.31c-.35 0-.64-.1-.85-.29-.21-.2-.43-.43-.66-.7a3.03 3.03 0 00-1.08-.76 7.83 7.83 0 00-1.93-.6c-.83-.15-1.85-.24-3.05-.24-1.9 0-3.62.5-5.18 1.47a10.85 10.85 0 00-3.74 3.93 11.1 11.1 0 00-1.4 5.55 12 12 0 001.3 5.62 9.9 9.9 0 003.62 3.94c1.54.96 3.35 1.44 5.4 1.44 1.46 0 2.58-.14 3.35-.42.76-.28 1.42-.58 1.97-.9.69-.4 1.16-.77 1.42-1.13.26-.35.57-.53.93-.53.26 0 .47.08.61.24.15.16.22.38.22.64 0 .39-.36.9-1.07 1.54a9.72 9.72 0 01-3 1.68c-1.3.49-2.82.73-4.58.73-2.38 0-4.48-.56-6.3-1.68a11.74 11.74 0 01-4.28-4.6 13.84 13.84 0 01-1.54-6.57c0-2.28.52-4.39 1.54-6.33a12.4 12.4 0 014.3-4.69c1.84-1.19 4-1.78 6.48-1.78zM164.91 36.16c-2.44 0-4.6-.52-6.47-1.56a11.32 11.32 0 01-4.42-4.42 13.44 13.44 0 01-1.62-6.72c0-2.74.53-5.07 1.6-7a11.61 11.61 0 014.1-4.41 10.09 10.09 0 015.35-1.54c1.37 0 2.7.22 4 .66a9.86 9.86 0 013.5 2.05c1.02.93 1.86 2.08 2.5 3.47.63 1.38.98 3.04 1.04 4.96 0 .26-.1.5-.3.7a.9.9 0 01-.68.33h-19.93l-.3-1.86h19.7l-.5.44v-.88a8.05 8.05 0 00-1.63-4.35 9.1 9.1 0 00-3.35-2.66c-1.3-.6-2.65-.9-4.05-.9-.98 0-2 .21-3.08.65a9.23 9.23 0 00-2.98 2c-.92.9-1.66 2.03-2.23 3.4a12.39 12.39 0 00-.85 4.8c0 1.98.4 3.8 1.2 5.46.8 1.67 1.98 3 3.56 4.01a10.63 10.63 0 005.84 1.52c1.11 0 2.15-.2 3.13-.57a9.97 9.97 0 004.55-3.49c.26-.3.53-.44.83-.44.23 0 .42.09.58.27.17.18.25.38.25.61a.9.9 0 01-.2.59 14.5 14.5 0 01-3.88 3.42 9.8 9.8 0 01-5.26 1.46zM177.46 11.58h11.34c.26 0 .48.1.66.3.18.2.27.4.27.63a.9.9 0 01-.27.66.9.9 0 01-.66.27h-11.34a.88.88 0 01-.64-.3.86.86 0 010-1.3c.2-.17.41-.26.64-.26zm4.99-7.18c.29 0 .52.1.7.3.18.19.27.41.27.68v25.46c0 1.07.14 1.86.42 2.37.28.5.63.83 1.05.97.42.15.83.22 1.22.22.23 0 .42-.03.59-.1.16-.06.36-.1.58-.1.23 0 .43.1.59.28.16.18.24.38.24.6 0 .3-.18.55-.56.77a2.8 2.8 0 01-1.4.31c-.19 0-.54 0-1.04-.02a4.01 4.01 0 01-1.61-.44 3.35 3.35 0 01-1.45-1.52 7.1 7.1 0 01-.58-3.25V5.38c0-.27.1-.5.3-.69.19-.2.41-.3.68-.3zM208.72 34.3c.26 0 .5.1.69.3.2.2.3.4.3.64 0 .26-.1.48-.3.65a.98.98 0 01-.69.27H192.8a.88.88 0 01-.75-.36c-.18-.25-.27-.45-.27-.61 0-.13.02-.25.07-.35.05-.1.1-.2.17-.29l15.74-22.09.24.4h-13.73a.94.94 0 01-.69-.3.9.9 0 01-.29-.64c0-.26.1-.48.3-.65.19-.18.42-.27.68-.27h14.95c.26 0 .48.1.66.29.18.2.29.42.32.68 0 .13-.02.26-.07.37-.05.11-.1.22-.17.32l-15.64 21.9-.74-.25h15.15zM224.74 36.16c-2.44 0-4.6-.52-6.47-1.56a11.32 11.32 0 01-4.43-4.42 13.44 13.44 0 01-1.61-6.72c0-2.74.53-5.07 1.59-7a11.61 11.61 0 014.1-4.41 10.09 10.09 0 015.35-1.54c1.37 0 2.7.22 4.01.66a9.86 9.86 0 013.5 2.05c1.02.93 1.85 2.08 2.49 3.47.63 1.38.98 3.04 1.05 4.96 0 .26-.1.5-.3.7a.9.9 0 01-.68.33H213.4l-.3-1.86h19.7l-.49.44v-.88a8.05 8.05 0 00-1.63-4.35 9.1 9.1 0 00-3.35-2.66c-1.3-.6-2.66-.9-4.06-.9-.97 0-2 .21-3.07.65a9.22 9.22 0 00-2.99 2c-.9.9-1.65 2.03-2.22 3.4a12.39 12.39 0 00-.85 4.8c0 1.98.4 3.8 1.2 5.46.8 1.67 1.98 3 3.56 4.01a10.63 10.63 0 005.84 1.52c1.1 0 2.15-.2 3.13-.57a9.97 9.97 0 004.54-3.49c.26-.3.54-.44.83-.44.23 0 .43.09.59.27.16.18.25.38.25.61a.9.9 0 01-.2.59 14.5 14.5 0 01-3.89 3.42 9.8 9.8 0 01-5.25 1.46zM248.87 36.16c-2.44 0-4.6-.52-6.48-1.56a11.32 11.32 0 01-4.42-4.42 13.45 13.45 0 01-1.61-6.72c0-2.74.53-5.07 1.59-7a11.61 11.61 0 014.1-4.41 10.09 10.09 0 015.35-1.54c1.37 0 2.7.22 4.01.66a9.86 9.86 0 013.5 2.05c1.02.93 1.85 2.08 2.49 3.47.63 1.38.98 3.04 1.05 4.96 0 .26-.1.5-.3.7a.9.9 0 01-.68.33h-19.94l-.3-1.86h19.7l-.49.44v-.88a8.05 8.05 0 00-1.63-4.35 9.1 9.1 0 00-3.35-2.66c-1.3-.6-2.66-.9-4.06-.9-.97 0-2 .21-3.08.65a9.24 9.24 0 00-2.98 2c-.9.9-1.65 2.03-2.22 3.4a12.39 12.39 0 00-.86 4.8c0 1.98.4 3.8 1.2 5.46.8 1.67 1.99 3 3.57 4.01a10.63 10.63 0 005.84 1.52c1.1 0 2.15-.2 3.13-.57a9.99 9.99 0 004.54-3.49c.26-.3.54-.44.83-.44.23 0 .43.09.59.27.16.18.24.38.24.61 0 .23-.06.42-.2.59a14.5 14.5 0 01-3.88 3.42 9.8 9.8 0 01-5.25 1.46z" fill-rule="nonzero" fill="white"/>
  <path d="M124.95 31.77c2.03 3.01 8.18 5.14 10.97 5.22 3.54.1 6.01-.87 7.74-1.68 5.89-2.74 7.54-8.56 6.34-14.3-.8-3.82-2.23-7.2-6.57-9.3-5.6-2.71-14.91-.44-18 2.9-3.07 3.34-3.63 12.47-.48 17.16z" fill="#F25C5C"/>
  <path d="M135.15 18.56c.05-.46.33-1.41.64-1.95.3-.5 1.12-1.18 1.55-1.32a2.47 2.47 0 011.47-.11c.64.2 1.18 1 1.47 1.55.43.8.43 1.56.24 2.33l.39-.15c.56-.2 1.82-.56 2.65-.44 1.25.2 2.81 1.36 2.63 3.05-.14 1.26-1.68 2.24-2.82 2.6l.05.04c.23.24 1.43 1.77 1.58 2.59.15.8.03 1.95-.64 2.34-.9.52-1.94.5-2.9.38a6.85 6.85 0 01-2.53-.77c-.39-.24-.73-.56-1-.86.13.56.19 1.22.1 1.78a3.55 3.55 0 01-2.1 2.56c-.92.4-1.84.3-2.6-.26-.75-.52-1.57-1.2-1.64-2.09-.04-.44.14-1.14.37-1.8-.7.33-1.46.48-2.26.3-.65-.17-1.56-.32-2.01-.82-.62-.67-1.38-2.35-.06-3.74a5.1 5.1 0 012.72-1.45 7.42 7.42 0 01-.97-1.6c-.2-.45-.4-1.23-.42-1.74-.02-.3.03-.82.15-1.1a2.74 2.74 0 011.93-1.55c.99-.2 2 .34 2.74.92.45.35.9.8 1.27 1.3z" fill="#ffffff"/>
  <path d="M133.66 23.26c.1.4.26 1.37.65 1.73.49.46 1 .62 1.38.72 1.3.32 2.5-.35 3.28-1.36.52-.68.88-1.37.6-2.23-.34-1.1-1.52-2.2-2.74-2.12-.26.02-.82.29-1.03.41-.92.54-1.94 1.31-2.19 2.42-.03.14.02.3.05.43z" fill="#F27507"/>
</svg>